<?xml version="1.0" encoding="utf-8"?>
<!-- Generator: Adobe Illustrator 27.6.1, SVG Export Plug-In . SVG Version: 6.00 Build 0)  -->
<svg version="1.1" id="Capa_1" xmlns="http://www.w3.org/2000/svg" xmlns:xlink="http://www.w3.org/1999/xlink" x="0px" y="0px"
	 viewBox="0 0 512 512" style="enable-background:new 0 0 512 512;" xml:space="preserve">
<style type="text/css">
	.st0{display:none;}
	.st1{display:inline;}
</style>
<g class="st0">
	<g class="st1">
		<circle cx="256" cy="125" r="15"/>
		<path d="M356,262c-19,0-36-10.5-44.5-27.5l-2.1-4.2c-2.5-5.1-7.7-8.3-13.4-8.3h-80c-5.7,0-10.9,3.2-13.4,8.3l-2.1,4.2
			C192,251.5,175,262,156,262c-8.3,0-15,6.7-15,15v85.6c0,33.7,10.6,65.7,30.7,92.7c20.1,27,47.7,46.4,80,56.1
			c1.4,0.4,2.9,0.6,4.3,0.6s2.9-0.2,4.3-0.6c32.2-9.7,59.9-29.1,80-56.1c20.1-27,30.7-59.1,30.7-92.7V277
			C371,268.7,364.3,262,356,262L356,262z M309,349.3l-56.6,56.6c-2.9,2.9-6.8,4.4-10.6,4.4s-7.7-1.5-10.6-4.4L203,377.6
			c-5.9-5.9-5.9-15.4,0-21.2c5.9-5.9,15.4-5.9,21.2,0l17.7,17.7l46-46c5.9-5.9,15.4-5.9,21.2,0C314.9,334,314.9,343.5,309,349.3z"/>
		<g>
			<path d="M485.4,179.3l-220-176c-5.5-4.4-13.3-4.4-18.7,0l-220,176c-6.5,5.2-7.5,14.6-2.3,21.1c5.2,6.5,14.6,7.5,21.1,2.3
				L76,178.2V411c0,8.3,6.7,15,15,15h31.1c-7.3-20.1-11.1-41.5-11.1-63.4V277c0-24.8,20.2-45,45-45c7.6,0,14.2-4.1,17.6-10.9
				l2.1-4.2c7.7-15.3,23.1-24.9,40.2-24.9h80c17.2,0,32.6,9.5,40.2,24.9l2.1,4.2c3.4,6.8,10,10.9,17.6,10.9c24.8,0,45,20.2,45,45
				v85.6c0,21.9-3.8,43.3-11.1,63.4H421c8.3,0,15-6.7,15-15V178.2l30.6,24.5c2.8,2.2,6.1,3.3,9.4,3.3c4.4,0,8.8-1.9,11.7-5.6
				C492.9,193.9,491.8,184.5,485.4,179.3L485.4,179.3z M256,170c-24.8,0-45-20.2-45-45s20.2-45,45-45s45,20.2,45,45
				S280.8,170,256,170z"/>
		</g>
	</g>
	<g class="st1">
		<path d="M156,15c0-8.3-6.7-15-15-15h-30c-8.3,0-15,6.7-15,15v70.4l60-48V15z"/>
	</g>
</g>
<image style="overflow:visible;" width="792" height="792" xlink:href="G:\DASIA-LOGO NEW.png"  transform="matrix(0.6439 0 0 0.6596 1.0011 -11)">
</image>
</svg>
